<mxfile host="65bd71144e">
    <diagram id="vFpjoG05YhnYtDggQirG" name="Page-1">
        <mxGraphModel dx="785" dy="590" grid="1" gridSize="10" guides="1" tooltips="1" connect="1" arrows="1" fold="1" page="1" pageScale="1" pageWidth="827" pageHeight="1169" math="0" shadow="0">
            <root>
                <mxCell id="0"/>
                <mxCell id="1" parent="0"/>
                <mxCell id="2" value="" style="swimlane;startSize=0;" parent="1" vertex="1">
                    <mxGeometry x="80" y="50" width="680" height="470" as="geometry"/>
                </mxCell>
                <mxCell id="3" value="Container extends layout" style="text;html=1;align=center;verticalAlign=middle;resizable=0;points=[];autosize=1;strokeColor=none;fillColor=none;" parent="2" vertex="1">
                    <mxGeometry x="225" y="10" width="150" height="20" as="geometry"/>
                </mxCell>
                <mxCell id="4" value="" style="swimlane;startSize=0;" parent="2" vertex="1">
                    <mxGeometry x="10" y="50" width="670" height="410" as="geometry"/>
                </mxCell>
                <mxCell id="5" value="container extends shop page" style="text;html=1;align=center;verticalAlign=middle;resizable=0;points=[];autosize=1;strokeColor=none;fillColor=none;" parent="4" vertex="1">
                    <mxGeometry x="30" y="160" width="170" height="20" as="geometry"/>
                </mxCell>
                <mxCell id="11" value="" style="rounded=0;whiteSpace=wrap;html=1;fillColor=#FFFFFF;" parent="4" vertex="1">
                    <mxGeometry x="380" width="290" height="420" as="geometry"/>
                </mxCell>
                <mxCell id="12" value="&lt;b&gt;x&lt;/b&gt;" style="rounded=1;whiteSpace=wrap;html=1;" parent="4" vertex="1">
                    <mxGeometry x="390" y="10" width="30" height="30" as="geometry"/>
                </mxCell>
                <mxCell id="14" value="&lt;font color=&quot;#000000&quot;&gt;container overlays shop&lt;/font&gt;" style="text;html=1;strokeColor=none;fillColor=none;align=center;verticalAlign=middle;whiteSpace=wrap;rounded=0;" parent="4" vertex="1">
                    <mxGeometry x="415" y="370" width="220" height="30" as="geometry"/>
                </mxCell>
                <mxCell id="16" value="" style="ellipse;whiteSpace=wrap;html=1;" parent="4" vertex="1">
                    <mxGeometry x="500" y="30" width="60" height="60" as="geometry"/>
                </mxCell>
                <mxCell id="18" value="0xde132fwjnifn4ndskns" style="text;html=1;strokeColor=none;fillColor=none;align=center;verticalAlign=middle;whiteSpace=wrap;rounded=0;fontColor=#000000;" parent="4" vertex="1">
                    <mxGeometry x="415" y="100" width="230" height="30" as="geometry"/>
                </mxCell>
                <mxCell id="19" value="MY BOOKS" style="text;html=1;strokeColor=none;fillColor=none;align=center;verticalAlign=middle;whiteSpace=wrap;rounded=0;fontColor=#000000;" parent="4" vertex="1">
                    <mxGeometry x="465" y="130" width="120" height="30" as="geometry"/>
                </mxCell>
                <mxCell id="37" value="" style="group" parent="4" vertex="1" connectable="0">
                    <mxGeometry x="435" y="173" width="190" height="187" as="geometry"/>
                </mxCell>
                <mxCell id="20" value="" style="rounded=1;whiteSpace=wrap;html=1;" parent="37" vertex="1">
                    <mxGeometry width="81.42857142857143" height="83.11111111111111" as="geometry"/>
                </mxCell>
                <mxCell id="21" value="-------------------------" style="text;html=1;strokeColor=none;fillColor=none;align=center;verticalAlign=middle;whiteSpace=wrap;rounded=0;fontSize=11;" parent="37" vertex="1">
                    <mxGeometry x="6.785714285714285" y="62.333333333333336" width="67.85714285714286" height="15.583333333333334" as="geometry"/>
                </mxCell>
                <mxCell id="22" value="-------------------------" style="text;html=1;strokeColor=none;fillColor=none;align=center;verticalAlign=middle;whiteSpace=wrap;rounded=0;fontSize=11;" parent="37" vertex="1">
                    <mxGeometry x="6.785714285714285" y="67.52777777777779" width="67.85714285714286" height="15.583333333333334" as="geometry"/>
                </mxCell>
                <mxCell id="23" value="-----------" style="text;html=1;strokeColor=none;fillColor=none;align=left;verticalAlign=middle;whiteSpace=wrap;rounded=0;fontSize=11;" parent="37" vertex="1">
                    <mxGeometry x="6.785714285714285" y="57.65833333333333" width="67.85714285714286" height="15.583333333333334" as="geometry"/>
                </mxCell>
                <mxCell id="24" value="" style="rounded=1;whiteSpace=wrap;html=1;" parent="37" vertex="1">
                    <mxGeometry x="108.57142857142856" width="81.42857142857143" height="83.11111111111111" as="geometry"/>
                </mxCell>
                <mxCell id="25" value="-------------------------" style="text;html=1;strokeColor=none;fillColor=none;align=center;verticalAlign=middle;whiteSpace=wrap;rounded=0;fontSize=11;" parent="37" vertex="1">
                    <mxGeometry x="115.35714285714286" y="62.333333333333336" width="67.85714285714286" height="15.583333333333334" as="geometry"/>
                </mxCell>
                <mxCell id="26" value="-------------------------" style="text;html=1;strokeColor=none;fillColor=none;align=center;verticalAlign=middle;whiteSpace=wrap;rounded=0;fontSize=11;" parent="37" vertex="1">
                    <mxGeometry x="115.35714285714286" y="67.52777777777779" width="67.85714285714286" height="15.583333333333334" as="geometry"/>
                </mxCell>
                <mxCell id="27" value="-----------" style="text;html=1;strokeColor=none;fillColor=none;align=left;verticalAlign=middle;whiteSpace=wrap;rounded=0;fontSize=11;" parent="37" vertex="1">
                    <mxGeometry x="115.35714285714286" y="57.65833333333333" width="67.85714285714286" height="15.583333333333334" as="geometry"/>
                </mxCell>
                <mxCell id="28" value="" style="rounded=1;whiteSpace=wrap;html=1;" parent="37" vertex="1">
                    <mxGeometry y="103.88888888888887" width="81.42857142857143" height="83.11111111111111" as="geometry"/>
                </mxCell>
                <mxCell id="29" value="-------------------------" style="text;html=1;strokeColor=none;fillColor=none;align=center;verticalAlign=middle;whiteSpace=wrap;rounded=0;fontSize=11;" parent="37" vertex="1">
                    <mxGeometry x="6.785714285714285" y="166.22222222222223" width="67.85714285714286" height="15.583333333333334" as="geometry"/>
                </mxCell>
                <mxCell id="30" value="-------------------------" style="text;html=1;strokeColor=none;fillColor=none;align=center;verticalAlign=middle;whiteSpace=wrap;rounded=0;fontSize=11;" parent="37" vertex="1">
                    <mxGeometry x="6.785714285714285" y="171.41666666666666" width="67.85714285714286" height="15.583333333333334" as="geometry"/>
                </mxCell>
                <mxCell id="31" value="-----------" style="text;html=1;strokeColor=none;fillColor=none;align=left;verticalAlign=middle;whiteSpace=wrap;rounded=0;fontSize=11;" parent="37" vertex="1">
                    <mxGeometry x="6.785714285714285" y="161.54722222222222" width="67.85714285714286" height="15.583333333333334" as="geometry"/>
                </mxCell>
                <mxCell id="32" value="" style="rounded=1;whiteSpace=wrap;html=1;" parent="37" vertex="1">
                    <mxGeometry x="108.57142857142856" y="103.88888888888887" width="81.42857142857143" height="83.11111111111111" as="geometry"/>
                </mxCell>
                <mxCell id="33" value="-------------------------" style="text;html=1;strokeColor=none;fillColor=none;align=center;verticalAlign=middle;whiteSpace=wrap;rounded=0;fontSize=11;" parent="37" vertex="1">
                    <mxGeometry x="115.35714285714286" y="166.22222222222223" width="67.85714285714286" height="15.583333333333334" as="geometry"/>
                </mxCell>
                <mxCell id="34" value="-------------------------" style="text;html=1;strokeColor=none;fillColor=none;align=center;verticalAlign=middle;whiteSpace=wrap;rounded=0;fontSize=11;" parent="37" vertex="1">
                    <mxGeometry x="115.35714285714286" y="171.41666666666666" width="67.85714285714286" height="15.583333333333334" as="geometry"/>
                </mxCell>
                <mxCell id="35" value="-----------" style="text;html=1;strokeColor=none;fillColor=none;align=left;verticalAlign=middle;whiteSpace=wrap;rounded=0;fontSize=11;" parent="37" vertex="1">
                    <mxGeometry x="115.35714285714286" y="161.54722222222222" width="67.85714285714286" height="15.583333333333334" as="geometry"/>
                </mxCell>
            </root>
        </mxGraphModel>
    </diagram>
</mxfile>